<svg width="20" height="22" viewBox="0 0 20 22" fill="none" xmlns="http://www.w3.org/2000/svg">
<path fill-rule="evenodd" clip-rule="evenodd" d="M6.66667 0.166748C7.1269 0.166748 7.5 0.539844 7.5 1.00008V1.90446C8.25852 1.85498 9.08973 1.83341 10 1.83341C10.9103 1.83341 11.7415 1.85498 12.5 1.90446V1.00008C12.5 0.539844 12.8731 0.166748 13.3333 0.166748C13.7936 0.166748 14.1667 0.539844 14.1667 1.00008V2.07745C17.9712 2.65111 19.4393 4.36228 19.8601 8.50008C19.8873 8.7676 19.9102 9.04526 19.9289 9.33341C19.9464 9.60165 19.9605 9.87899 19.9713 10.1657C19.991 10.6897 20 11.2451 20 11.8334C20 20.0684 18.235 21.8334 10 21.8334C1.765 21.8334 0 20.0684 0 11.8334C0 11.2451 0.00900996 10.6897 0.0287452 10.1657C0.0395427 9.87899 0.0535506 9.60165 0.0710503 9.33341C0.0898492 9.04526 0.112677 8.7676 0.139883 8.50008C0.560685 4.36228 2.02879 2.65111 5.83333 2.07745V1.00008C5.83333 0.539844 6.20643 0.166748 6.66667 0.166748ZM5.83333 3.7656C4.71339 3.95582 3.95699 4.24758 3.42349 4.6387C2.63633 5.21578 2.06882 6.22925 1.81601 8.50008H18.184C17.9312 6.22925 17.3637 5.21578 16.5765 4.6387C16.043 4.24758 15.2866 3.95582 14.1667 3.7656V4.33341C14.1667 4.79365 13.7936 5.16675 13.3333 5.16675C12.8731 5.16675 12.5 4.79365 12.5 4.33341V3.57607C11.7765 3.5255 10.9489 3.50008 10 3.50008C9.05112 3.50008 8.22349 3.5255 7.5 3.57607V4.33341C7.5 4.79365 7.1269 5.16675 6.66667 5.16675C6.20643 5.16675 5.83333 4.79365 5.83333 4.33341V3.7656ZM18.3333 11.8334C18.3333 11.2373 18.3238 10.6829 18.3034 10.1667H1.69661C1.6762 10.6829 1.66667 11.2373 1.66667 11.8334C1.66667 13.8541 1.77712 15.3642 2.03142 16.5085C2.28153 17.6338 2.64807 18.3007 3.09039 18.743C3.5327 19.1853 4.19958 19.5519 5.32494 19.802C6.46923 20.0563 7.97929 20.1667 10 20.1667C12.0207 20.1667 13.5308 20.0563 14.6751 19.802C15.8004 19.5519 16.4673 19.1853 16.9096 18.743C17.3519 18.3007 17.7185 17.6338 17.9686 16.5085C18.2229 15.3642 18.3333 13.8541 18.3333 11.8334Z" fill="#666666"/>
<path fill-rule="evenodd" clip-rule="evenodd" d="M4.16675 13.5001C4.16675 13.0398 4.53984 12.6667 5.00008 12.6667H7.50008C7.96032 12.6667 8.33341 13.0398 8.33341 13.5001C8.33341 13.9603 7.96032 14.3334 7.50008 14.3334H5.00008C4.53984 14.3334 4.16675 13.9603 4.16675 13.5001ZM12.5001 12.6667C12.0398 12.6667 11.6667 13.0398 11.6667 13.5001C11.6667 13.9603 12.0398 14.3334 12.5001 14.3334H15.0001C15.4603 14.3334 15.8334 13.9603 15.8334 13.5001C15.8334 13.0398 15.4603 12.6667 15.0001 12.6667H12.5001ZM12.5001 16.0001C12.0398 16.0001 11.6667 16.3732 11.6667 16.8334C11.6667 17.2937 12.0398 17.6667 12.5001 17.6667H15.0001C15.4603 17.6667 15.8334 17.2937 15.8334 16.8334C15.8334 16.3732 15.4603 16.0001 15.0001 16.0001H12.5001ZM5.00008 16.0001C4.53984 16.0001 4.16675 16.3732 4.16675 16.8334C4.16675 17.2937 4.53984 17.6667 5.00008 17.6667H7.50008C7.96032 17.6667 8.33341 17.2937 8.33341 16.8334C8.33341 16.3732 7.96032 16.0001 7.50008 16.0001H5.00008Z" fill="#666666"/>
</svg>
